<?xml version="1.0" encoding="utf-8"?>
<!-- Generator: Adobe Illustrator 17.0.0, SVG Export Plug-In . SVG Version: 6.00 Build 0)  -->
<!DOCTYPE svg PUBLIC "-//W3C//DTD SVG 1.1//EN" "http://www.w3.org/Graphics/SVG/1.1/DTD/svg11.dtd">
<svg version="1.1" id="Слой_1" xmlns="http://www.w3.org/2000/svg" xmlns:xlink="http://www.w3.org/1999/xlink" x="0px" y="0px"
	 width="500px" height="362px" viewBox="0 0 500 362" enable-background="new 0 0 500 362" xml:space="preserve">
<g id="_x23_ffffffff">
</g>
<g id="_x23_ccccccff">
	<path fill="#CCCCCC" d="M243.4,60.47c25.47-1.45,51.35,5.35,72.66,19.4c24.11,15.68,42.46,40.15,50.19,67.9
		c6.13,21.58,6.13,44.87,0,66.46c-7.6,27.28-25.46,51.41-48.99,67.11c-20.28,13.7-44.85,20.85-69.31,20.34
		c-25.76-0.28-51.29-9.21-71.65-24.97c-21.45-16.43-37.27-40.17-43.6-66.48c-6.21-25.01-4.26-52.03,5.7-75.81
		c11.84-28.62,35.28-52.14,63.73-64.32C215.16,64.42,229.22,61.22,243.4,60.47 M180.51,101c5.4,5.76,11.14,11.19,16.67,16.82
		c44.32,44.16,88.41,88.56,132.87,132.58c22.79-25.41,31.62-62.41,22.93-95.41c-6.48-25.6-22.84-48.58-45.06-62.89
		C291.1,81.12,271.12,74.89,251,74.94C225.36,74.44,199.69,84,180.51,101 M147.02,207.01c6.47,25.61,22.85,48.58,45.07,62.9
		c16.81,10.97,36.79,17.2,56.91,17.15c25.64,0.49,51.32-9.05,70.49-26.06c-1.53-1.63-3.07-3.26-4.65-4.84
		c-48.36-48.13-96.42-96.56-144.89-144.56C147.16,137.02,138.33,174.01,147.02,207.01z"/>
</g>
<path fill="#999999" d="M220.172,130.28h55.848c1.26,0.09,2.9-0.25,3.53,1.21c2.53,4.25,4.39,8.87,6.75,13.22l28.88,0.12
	c0,0-0.135,38.697-0.055,58.087c-0.11,7.35-0.125,14.625-0.105,22.143c-7.145-6.56-13.13-12.92-19.79-19.29
	c-3.59-3.79-7.53-7.429-11.01-11.15c0.551-2.495,1.13-5.18,1.46-7.8c3-15.9-6.49-32.91-21.4-39.05
	c-8.05-3.6-18.753-3.13-27.092-0.52 M298.38,152.46c-4.88,1.46-6.48,8.42-2.73,11.88c3.64,4.06,11.26,1.87,12.11-3.53
	C309.07,155.61,303.44,150.45,298.38,152.46z"/>
<path fill="#999999" d="M184.82,144.82c3.555-0.07,8.597-0.07,8.597-0.07l22.875,22.521c-2.91,9.05-3.032,21.569,1.438,30.029
	c6.93,14.32,24.02,21.867,40.187,19.2c2.077-0.403,5.723-1.28,5.723-1.28l8.84,9.405h-87.803L184.82,144.82z"/>
<path fill="#999999" d="M243.583,154.208c9.96-1.79,21.247,1.592,27.607,9.662c5.4,6.37,6.838,15.467,5.518,23.547
	C273.771,184.716,247.141,157.858,243.583,154.208z"/>
<path fill="#999999" d="M223.2,174.9c8.48,7.81,16.35,16.25,24.6,24.3c2.83,2.8,5.72,5.55,8.29,8.59
	c-9.96,1.79-20.91-1.59-27.28-9.66C223.41,191.77,221.88,182.99,223.2,174.9z"/>
</svg>
